<?xml version="1.0" standalone="no"?>
<!DOCTYPE svg PUBLIC "-//W3C//DTD SVG 20010904//EN"
 "http://www.w3.org/TR/2001/REC-SVG-20010904/DTD/svg10.dtd">
<svg version="1.0" xmlns="http://www.w3.org/2000/svg"
 width="534.000000pt" height="531.000000pt" viewBox="0 0 534.000000 531.000000"
 preserveAspectRatio="xMidYMid meet">
<metadata>
Created by potrace 1.16, written by Peter Selinger 2001-2019
</metadata>
<g transform="translate(0.000000,531.000000) scale(0.100000,-0.100000)"
fill="#f97f27" stroke="none">
<path d="M1585 4967 c-110 -5 -203 -14 -206 -19 -3 -5 -46 -19 -95 -32 -246
-66 -417 -162 -578 -322 -212 -212 -324 -467 -368 -839 -19 -158 -19 -2012 0
-2170 44 -372 156 -627 368 -839 212 -212 467 -324 839 -368 158 -19 2012 -19
2170 0 371 44 628 157 839 368 211 211 324 468 368 839 10 84 13 344 13 1085
0 1026 -2 1083 -47 1289 -99 461 -385 786 -816 927 -59 19 -118 41 -132 48
-14 7 -72 16 -130 20 -58 4 -166 11 -240 16 -176 12 -1727 9 -1985 -3z m1248
-579 l-173 -173 -106 105 c-58 58 -133 135 -166 173 l-60 67 338 0 339 0 -172
-172z m-719 -185 l359 -348 -64 -13 c-376 -78 -681 -311 -849 -650 -146 -294
-159 -654 -35 -968 74 -185 208 -363 370 -489 211 -164 426 -242 690 -252 209
-8 391 30 567 117 534 265 793 874 612 1435 -130 401 -480 718 -882 799 l-54
11 178 170 c98 94 261 250 363 348 l185 177 55 0 c150 0 372 -60 496 -132 90
-53 210 -173 263 -263 51 -87 97 -222 117 -345 23 -143 35 -536 35 -1130 0
-591 -12 -987 -35 -1127 -20 -123 -66 -263 -112 -343 -49 -83 -190 -224 -273
-273 -80 -46 -221 -92 -343 -112 -143 -23 -532 -35 -1132 -35 -608 0 -978 12
-1121 35 -123 20 -263 65 -344 112 -84 49 -224 189 -273 273 -47 81 -92 221
-112 344 -23 144 -35 514 -35 1126 0 612 12 982 35 1126 20 123 65 263 112
344 49 83 190 224 273 273 134 77 298 116 575 136 14 1 130 -105 379 -346z
m376 -1214 c0 -237 -4 -429 -8 -427 -5 2 -41 40 -81 86 l-73 82 -169 0 -169 0
325 -367 c179 -203 329 -369 333 -371 8 -2 652 710 660 730 2 4 -72 8 -165 7
l-168 0 -75 -86 -75 -86 -3 423 c-1 233 -1 425 1 427 7 6 122 -38 176 -69 138
-77 248 -193 316 -331 158 -323 66 -724 -217 -940 -388 -298 -953 -162 -1158
278 -95 202 -96 443 -3 645 66 145 201 288 338 358 49 25 178 71 203 72 9 0
12 -93 12 -431z"/>
</g>
</svg>
